<svg xmlns="http://www.w3.org/2000/svg" width="30.452" height="24.981" viewBox="0 0 30.452 24.981">
  <g id="Сгруппировать_121" data-name="Сгруппировать 121" transform="translate(2439.333 -522.797)">
    <g id="Сгруппировать_110" data-name="Сгруппировать 110">
      <g id="Сгруппировать_109" data-name="Сгруппировать 109">
        <path id="Контур_56" data-name="Контур 56" d="M-2416.549,528.919a.6.6,0,0,0-.841,0l-1.19,1.19a.6.6,0,0,0,0,.841.6.6,0,0,0,.841,0l1.19-1.19A.6.6,0,0,0-2416.549,528.919Z" fill="#91b508"/>
      </g>
    </g>
    <g id="Сгруппировать_112" data-name="Сгруппировать 112">
      <g id="Сгруппировать_111" data-name="Сгруппировать 111">
        <path id="Контур_57" data-name="Контур 57" d="M-2430.824,528.919a.6.6,0,0,0-.841,0l-1.189,1.19a.593.593,0,0,0,0,.841.6.6,0,0,0,.841,0l1.189-1.19A.593.593,0,0,0-2430.824,528.919Z" fill="#91b508"/>
      </g>
    </g>
    <g id="Сгруппировать_114" data-name="Сгруппировать 114">
      <g id="Сгруппировать_113" data-name="Сгруппировать 113">
        <path id="Контур_58" data-name="Контур 58" d="M-2419.523,526.54a.6.6,0,0,0-.841,0l-1.19,1.19a.6.6,0,0,0,0,.841.6.6,0,0,0,.842,0l1.189-1.19A.6.6,0,0,0-2419.523,526.54Z" fill="#91b508"/>
      </g>
    </g>
    <g id="Сгруппировать_116" data-name="Сгруппировать 116">
      <g id="Сгруппировать_115" data-name="Сгруппировать 115">
        <path id="Контур_59" data-name="Контур 59" d="M-2426.66,526.54a.6.6,0,0,0-.841,0l-1.19,1.19a.6.6,0,0,0,0,.841.6.6,0,0,0,.841,0l1.19-1.19A.6.6,0,0,0-2426.66,526.54Z" fill="#91b508"/>
      </g>
    </g>
    <g id="Сгруппировать_118" data-name="Сгруппировать 118">
      <g id="Сгруппировать_117" data-name="Сгруппировать 117">
        <path id="Контур_60" data-name="Контур 60" d="M-2423.686,528.919a.6.6,0,0,0-.841,0l-1.19,1.19a.6.6,0,0,0,0,.841.6.6,0,0,0,.841,0l1.19-1.19A.6.6,0,0,0-2423.686,528.919Z" fill="#91b508"/>
      </g>
    </g>
    <g id="Сгруппировать_120" data-name="Сгруппировать 120">
      <g id="Сгруппировать_119" data-name="Сгруппировать 119">
        <path id="Контур_61" data-name="Контур 61" d="M-2408.881,541.235a1.785,1.785,0,0,0-1.784-1.784h-.595v-1.917c.025-.021.05-.042.074-.064a3.014,3.014,0,0,1,1.718-.583.6.6,0,0,0,.587-.6.6.6,0,0,0-.594-.588h-.008a4.557,4.557,0,0,0-1.777.42v-1.559a1.782,1.782,0,0,0,1.1-1.869,11.311,11.311,0,0,0-11.214-9.892h-5.472a11.309,11.309,0,0,0-11.213,9.891,1.781,1.781,0,0,0,1.1,1.87v1.533a4.474,4.474,0,0,0-1.792-.394.6.6,0,0,0-.587.6.6.6,0,0,0,.595.587h.008a2.964,2.964,0,0,1,1.76.581l.016.015v1.968h-.595a1.783,1.783,0,0,0-1.784,1.784,1.787,1.787,0,0,0,1.492,1.76,1.7,1.7,0,0,0-.021,1.149,5.354,5.354,0,0,0,5.071,3.634h17.368a5.352,5.352,0,0,0,5.071-3.635,1.687,1.687,0,0,0-.02-1.148A1.783,1.783,0,0,0-2408.881,541.235Zm-27.995-8.4a10.119,10.119,0,0,1,10.033-8.849h5.472a10.119,10.119,0,0,1,10.033,8.849.6.6,0,0,1-.556.665h-24.383A.6.6,0,0,1-2436.876,532.836Zm22.121,3.755a3.117,3.117,0,0,0-4.37,0,1.932,1.932,0,0,1-2.767,0,3.117,3.117,0,0,0-4.37,0,1.932,1.932,0,0,1-2.767,0,3.118,3.118,0,0,0-4.371,0,1.9,1.9,0,0,1-2.364.3v-2.2h23.315v2.233A1.9,1.9,0,0,1-2414.755,536.591Zm2.306,1.625v1.235h-23.315V538.2a2.993,2.993,0,0,0,.981.166,3.233,3.233,0,0,0,2.185-.9,1.932,1.932,0,0,1,2.767,0,3.117,3.117,0,0,0,4.37,0,1.932,1.932,0,0,1,2.767,0,3.118,3.118,0,0,0,4.371,0,1.932,1.932,0,0,1,2.767,0A3.124,3.124,0,0,0-2412.449,538.216Zm.97,5.546a4.162,4.162,0,0,1-3.944,2.826h-17.368a4.162,4.162,0,0,1-3.944-2.826.589.589,0,0,1,.582-.742h24.093A.589.589,0,0,1-2411.479,543.762Zm.814-1.932h-26.884a.6.6,0,0,1-.595-.6.6.6,0,0,1,.595-.595h26.884a.6.6,0,0,1,.595.595A.6.6,0,0,1-2410.665,541.83Z" fill="#91b508"/>
      </g>
    </g>
  </g>
</svg>
