<svg xmlns="http://www.w3.org/2000/svg" width="24.165" height="24.169" viewBox="0 0 24.165 24.169">
  <g id="Сгруппировать_123" data-name="Сгруппировать 123" transform="translate(2439.333 -991.173)">
    <path id="Контур_62" data-name="Контур 62" d="M-2415.23,998.279a8.8,8.8,0,0,0-.562-2.932,5.915,5.915,0,0,0-1.4-2.144,5.947,5.947,0,0,0-2.139-1.393,8.858,8.858,0,0,0-2.932-.561c-1.294-.062-1.705-.076-4.986-.076s-3.692.014-4.981.071a8.8,8.8,0,0,0-2.932.562,5.9,5.9,0,0,0-2.144,1.4,5.96,5.96,0,0,0-1.393,2.139,8.865,8.865,0,0,0-.561,2.932c-.062,1.294-.076,1.705-.076,4.986s.014,3.692.071,4.981a8.8,8.8,0,0,0,.562,2.932,5.964,5.964,0,0,0,1.4,2.144,5.961,5.961,0,0,0,2.139,1.393,8.857,8.857,0,0,0,2.932.561c1.289.057,1.7.071,4.981.071s3.693-.014,4.982-.071a8.82,8.82,0,0,0,2.931-.561,6.182,6.182,0,0,0,3.537-3.537,8.869,8.869,0,0,0,.562-2.932c.056-1.289.071-1.7.071-4.981S-2415.173,999.568-2415.23,998.279Zm-2.176,9.868a6.617,6.617,0,0,1-.416,2.242,4.009,4.009,0,0,1-2.295,2.3,6.638,6.638,0,0,1-2.242.415c-1.275.057-1.657.071-4.882.071s-3.612-.014-4.882-.071a6.609,6.609,0,0,1-2.243-.415,3.714,3.714,0,0,1-1.388-.9,3.766,3.766,0,0,1-.9-1.388,6.634,6.634,0,0,1-.415-2.242c-.057-1.275-.071-1.658-.071-4.883s.014-3.612.071-4.882a6.605,6.605,0,0,1,.415-2.242,3.678,3.678,0,0,1,.907-1.388,3.734,3.734,0,0,1,1.388-.9,6.656,6.656,0,0,1,2.242-.416c1.275-.056,1.658-.071,4.882-.071s3.612.015,4.882.071a6.628,6.628,0,0,1,2.243.416,3.7,3.7,0,0,1,1.388.9,3.746,3.746,0,0,1,.9,1.388,6.653,6.653,0,0,1,.416,2.242c.056,1.275.07,1.658.07,4.882S-2417.35,1006.872-2417.406,1008.147Z" fill="#91b508"/>
    <path id="Контур_63" data-name="Контур 63" d="M-2427.246,997.051a6.21,6.21,0,0,0-6.209,6.209,6.21,6.21,0,0,0,6.209,6.209,6.21,6.21,0,0,0,6.209-6.209A6.21,6.21,0,0,0-2427.246,997.051Zm0,10.236a4.028,4.028,0,0,1-4.028-4.027,4.028,4.028,0,0,1,4.028-4.027,4.027,4.027,0,0,1,4.027,4.027A4.027,4.027,0,0,1-2427.246,1007.287Z" fill="#91b508"/>
    <path id="Контур_64" data-name="Контур 64" d="M-2419.342,996.806a1.449,1.449,0,0,1-1.45,1.449,1.449,1.449,0,0,1-1.449-1.449,1.449,1.449,0,0,1,1.449-1.45A1.45,1.45,0,0,1-2419.342,996.806Z" fill="#91b508"/>
  </g>
</svg>
