<svg xmlns="http://www.w3.org/2000/svg" width="39.468" height="39.733" viewBox="0 0 39.468 39.733">
  <g id="Сгруппировать_87" data-name="Сгруппировать 87" transform="translate(2443.841 -257.1)">
    <path id="Контур_32" data-name="Контур 32" d="M-2404.423,269.34a19.028,19.028,0,0,0-12.436-12.2.98.98,0,0,0-1.227.678L-2421,268.685a.584.584,0,0,0,.412.715.584.584,0,0,0,.715-.412l2.051-7.648a15.725,15.725,0,0,1,9.4,9.227l-5.63,2.067a2.891,2.891,0,0,0-3.532-1.185,2.889,2.889,0,0,0-1.772,3.132l-2.239.822,1.015-3.782a.584.584,0,0,0-.412-.715.584.584,0,0,0-.715.413l-1.112,4.143a.979.979,0,0,0,1.274,1.165l16.534-6.069a.969.969,0,0,0,.588-1.218Zm-13.095-9.132.507-1.888a17.843,17.843,0,0,1,11.421,11.208l-1.736.637a16.9,16.9,0,0,0-10.192-9.957Zm.367,12.324a1.721,1.721,0,0,1,1.97.516l-3.045,1.118A1.719,1.719,0,0,1-2417.151,272.532Z" fill="#91b508"/>
    <path id="Контур_33" data-name="Контур 33" d="M-2406.394,273.467a.971.971,0,0,0-.486-.632.976.976,0,0,0-.8-.057l-7.053,2.59-3.573,1.311,0,0-2.836,1.041a.584.584,0,0,0-.347.749.584.584,0,0,0,.749.346l2.343-.86a2.85,2.85,0,0,0,1.3,1.139,2.868,2.868,0,0,0,1.157.244,2.858,2.858,0,0,0,1.046-.2,2.888,2.888,0,0,0,1.8-3.131l2.685-.985a14.769,14.769,0,0,1,.274,2.828,14.717,14.717,0,0,1-14.7,14.7,14.718,14.718,0,0,1-14.7-14.7,14.717,14.717,0,0,1,14.7-14.7,14.744,14.744,0,0,1,2.832.275l-4.233,15.774a.97.97,0,0,0,.283.97.971.971,0,0,0,.655.255.98.98,0,0,0,.336-.06l1.669-.612a.584.584,0,0,0,.347-.749.585.585,0,0,0-.749-.347l-1.317.484,5-18.621a.98.98,0,0,0-.73-1.2,19.073,19.073,0,0,0-4.846-.433,19.021,19.021,0,0,0-8.626,2.45.583.583,0,0,0-.219.795.583.583,0,0,0,.795.219,17.628,17.628,0,0,1,8.095-2.3,17.882,17.882,0,0,1,4.351.364l-.5,1.881a15.971,15.971,0,0,0-3.135-.312,15.885,15.885,0,0,0-15.868,15.867,15.886,15.886,0,0,0,15.868,15.868,15.885,15.885,0,0,0,15.867-15.868,15.929,15.929,0,0,0-.332-3.235l1.823-.669a17.942,17.942,0,0,1,.417,3.217,17.7,17.7,0,0,1-4.728,12.786,17.7,17.7,0,0,1-12.384,5.7,17.833,17.833,0,0,1-18.486-17.111,17.875,17.875,0,0,1,6.827-14.721.582.582,0,0,0,.1-.819.582.582,0,0,0-.819-.1,19.145,19.145,0,0,0-5.465,6.828,19.03,19.03,0,0,0-1.808,8.856,18.851,18.851,0,0,0,6.073,13.2,18.838,18.838,0,0,0,12.874,5.052c.249,0,.5-.005.75-.015a18.857,18.857,0,0,0,13.2-6.072,18.859,18.859,0,0,0,5.037-13.624,19.115,19.115,0,0,0-.5-3.655Zm-8.923,4.588h0a1.7,1.7,0,0,1-1.31-.027,1.7,1.7,0,0,1-.638-.486l3.038-1.115a1.717,1.717,0,0,1-1.089,1.628Z" fill="#91b508"/>
    <path id="Контур_34" data-name="Контур 34" d="M-2427.638,270.076a2.569,2.569,0,0,0,2.566-2.566,2.569,2.569,0,0,0-2.566-2.567,2.569,2.569,0,0,0-2.567,2.567A2.569,2.569,0,0,0-2427.638,270.076Zm0-3.966a1.4,1.4,0,0,1,1.4,1.4,1.4,1.4,0,0,1-1.4,1.4,1.4,1.4,0,0,1-1.4-1.4A1.4,1.4,0,0,1-2427.638,266.11Z" fill="#91b508"/>
    <path id="Контур_35" data-name="Контур 35" d="M-2424.838,291.311a2.57,2.57,0,0,0,2.566-2.567,2.57,2.57,0,0,0-2.566-2.567,2.57,2.57,0,0,0-2.567,2.567,2.57,2.57,0,0,0,2.567,2.567Zm0-3.967a1.4,1.4,0,0,1,1.4,1.4,1.4,1.4,0,0,1-1.4,1.4,1.4,1.4,0,0,1-1.4-1.4,1.4,1.4,0,0,1,1.4-1.4Z" fill="#91b508"/>
    <path id="Контур_36" data-name="Контур 36" d="M-2436.972,274.977a2.569,2.569,0,0,0,2.567,2.566,2.569,2.569,0,0,0,2.566-2.566,2.569,2.569,0,0,0-2.566-2.567A2.569,2.569,0,0,0-2436.972,274.977Zm2.567-1.4a1.4,1.4,0,0,1,1.4,1.4,1.4,1.4,0,0,1-1.4,1.4,1.4,1.4,0,0,1-1.4-1.4A1.4,1.4,0,0,1-2434.405,273.577Z" fill="#91b508"/>
    <path id="Контур_37" data-name="Контур 37" d="M-2432.85,287.655a2.57,2.57,0,0,0,2.567-2.567,2.571,2.571,0,0,0-2.567-2.567,2.571,2.571,0,0,0-2.567,2.567A2.57,2.57,0,0,0-2432.85,287.655Zm0-3.967a1.4,1.4,0,0,1,1.4,1.4,1.4,1.4,0,0,1-1.4,1.4,1.4,1.4,0,0,1-1.4-1.4A1.4,1.4,0,0,1-2432.85,283.688Z" fill="#91b508"/>
    <path id="Контур_38" data-name="Контур 38" d="M-2415.548,282.06a.584.584,0,0,0,.532-.631.585.585,0,0,0-.631-.532,2.583,2.583,0,0,0-2.347,2.558,2.57,2.57,0,0,0,2.567,2.567,2.57,2.57,0,0,0,2.567-2.567c.045-.423-.188-.91-.677-.842a.648.648,0,0,0-.49.842,1.4,1.4,0,0,1-1.4,1.4,1.4,1.4,0,0,1-1.4-1.4,1.408,1.408,0,0,1,1.279-1.395Z" fill="#91b508"/>
    <path id="Контур_39" data-name="Контур 39" d="M-2430.468,271.326a4.111,4.111,0,0,0,.251,3.309,4.266,4.266,0,0,0,3.043,1.4h.021a.582.582,0,0,0,.551-.393,4.11,4.11,0,0,0-.251-3.309,4.268,4.268,0,0,0-3.043-1.4.58.58,0,0,0-.572.393Zm.99.828a2.663,2.663,0,0,1,1.67.851,2.528,2.528,0,0,1,.216,1.811,2.664,2.664,0,0,1-1.67-.851A2.531,2.531,0,0,1-2429.478,272.154Z" fill="#91b508"/>
    <path id="Контур_40" data-name="Контур 40" d="M-2421.378,281.092a4.264,4.264,0,0,0-3.314.491.583.583,0,0,0-.264.642,4.112,4.112,0,0,0,2.021,2.632,2.691,2.691,0,0,0,1,.183,5.04,5.04,0,0,0,2.31-.674.584.584,0,0,0,.265-.642,4.11,4.11,0,0,0-2.021-2.632Zm-1.125,2.682a2.529,2.529,0,0,1-1.171-1.4,2.662,2.662,0,0,1,1.863-.2,2.528,2.528,0,0,1,1.172,1.4A2.664,2.664,0,0,1-2422.5,283.774Z" fill="#91b508"/>
    <path id="Контур_41" data-name="Контур 41" d="M-2427.394,280.446a.584.584,0,0,0,.121-.683,4.111,4.111,0,0,0-2.538-2.139,4.268,4.268,0,0,0-3.131,1.189.582.582,0,0,0-.121.684,4.107,4.107,0,0,0,2.537,2.138,2.41,2.41,0,0,0,.4.033,4.585,4.585,0,0,0,2.728-1.222Zm-4.385-1.076a2.663,2.663,0,0,1,1.777-.6,2.525,2.525,0,0,1,1.444,1.114,2.657,2.657,0,0,1-1.777.6A2.528,2.528,0,0,1-2431.779,279.37Z" fill="#91b508"/>
    <path id="Контур_42" data-name="Контур 42" d="M-2416.636,269.519a.591.591,0,0,0,.261-.061,4.118,4.118,0,0,0,2.136-2.54,4.268,4.268,0,0,0-1.193-3.131.584.584,0,0,0-.683-.12,4.112,4.112,0,0,0-2.137,2.54,4.267,4.267,0,0,0,1.193,3.13.584.584,0,0,0,.423.182Zm-.464-3.122a2.522,2.522,0,0,1,1.113-1.445,2.664,2.664,0,0,1,.6,1.776,2.529,2.529,0,0,1-1.112,1.444,2.625,2.625,0,0,1-.6-1.775Z" fill="#91b508"/>
    <path id="Контур_43" data-name="Контур 43" d="M-2437.672,280.46a1.752,1.752,0,0,0,1.75,1.75,1.752,1.752,0,0,0,1.75-1.75,1.752,1.752,0,0,0-1.75-1.75A1.752,1.752,0,0,0-2437.672,280.46Zm1.75-.583a.584.584,0,0,1,.583.583.584.584,0,0,1-.583.584.585.585,0,0,1-.584-.584A.585.585,0,0,1-2435.922,279.877Z" fill="#91b508"/>
    <path id="Контур_44" data-name="Контур 44" d="M-2432.811,271.243a1.752,1.752,0,0,0,1.75-1.75,1.752,1.752,0,0,0-1.75-1.75,1.752,1.752,0,0,0-1.75,1.75A1.752,1.752,0,0,0-2432.811,271.243Zm0-2.333a.583.583,0,0,1,.583.583.583.583,0,0,1-.583.583.583.583,0,0,1-.583-.583A.583.583,0,0,1-2432.811,268.91Z" fill="#91b508"/>
    <path id="Контур_45" data-name="Контур 45" d="M-2410.449,269.026a1.752,1.752,0,0,0-1.75-1.75,1.752,1.752,0,0,0-1.75,1.75,1.752,1.752,0,0,0,1.75,1.75A1.752,1.752,0,0,0-2410.449,269.026Zm-2.333,0a.584.584,0,0,1,.583-.583.584.584,0,0,1,.584.583.585.585,0,0,1-.584.584A.584.584,0,0,1-2412.782,269.026Z" fill="#91b508"/>
    <path id="Контур_46" data-name="Контур 46" d="M-2419.355,286.177a1.752,1.752,0,0,0-1.75,1.75,1.752,1.752,0,0,0,1.75,1.75,1.752,1.752,0,0,0,1.75-1.75A1.752,1.752,0,0,0-2419.355,286.177Zm0,2.334a.584.584,0,0,1-.583-.584.584.584,0,0,1,.583-.583.584.584,0,0,1,.584.583A.585.585,0,0,1-2419.355,288.511Z" fill="#91b508"/>
    <path id="Контур_47" data-name="Контур 47" d="M-2427.677,285.866a1.752,1.752,0,0,0,1.75-1.75,1.752,1.752,0,0,0-1.75-1.75,1.752,1.752,0,0,0-1.75,1.75A1.752,1.752,0,0,0-2427.677,285.866Zm0-2.333a.584.584,0,0,1,.583.583.584.584,0,0,1-.583.583.584.584,0,0,1-.584-.583A.584.584,0,0,1-2427.677,283.533Z" fill="#91b508"/>
  </g>
</svg>
