<svg xmlns="http://www.w3.org/2000/svg" width="20.274" height="21" viewBox="0 0 20.274 21">
  <path fill="#fff" id="Контур_18" data-name="Контур 18" d="M-1697.751,66.249a1.1,1.1,0,0,0,.766.309,1.1,1.1,0,0,0,.8-.34l5.036-5.237a8.386,8.386,0,0,0,4.858,1.534,8.488,8.488,0,0,0,8.478-8.479,8.487,8.487,0,0,0-8.478-8.478,8.488,8.488,0,0,0-8.479,8.478,8.453,8.453,0,0,0,1.989,5.451l-5,5.2A1.107,1.107,0,0,0-1697.751,66.249Zm17.723-12.213a6.273,6.273,0,0,1-6.266,6.267,6.274,6.274,0,0,1-6.267-6.267,6.274,6.274,0,0,1,6.267-6.267A6.274,6.274,0,0,1-1680.028,54.036Z" transform="translate(1698.09 -45.558)"/>
</svg>
