<svg xmlns="http://www.w3.org/2000/svg" width="36.03" height="36.025" viewBox="0 0 36.03 36.025">
  <g id="_019---Sushi" data-name="019---Sushi" transform="translate(2442.122 -172.847)">
    <path id="Shape" d="M-2435.515,204.078h16.543l.966,3.17a2.319,2.319,0,0,0,1.741,1.576,2.316,2.316,0,0,0,2.223-.756,2.314,2.314,0,0,0,.42-2.31l-.893-2.4a6.532,6.532,0,0,0,2.723-2.565l1.289,2.786a2.315,2.315,0,0,0,1.94,1.325,2.315,2.315,0,0,0,2.1-1.054,2.313,2.313,0,0,0,.1-2.347l-4.526-8.409V179.454a6.616,6.616,0,0,0-6.607-6.607h-18.017a6.615,6.615,0,0,0-6.607,6.607v18.017A6.615,6.615,0,0,0-2435.515,204.078Zm21.02-17.679-4.608-8.558a1.5,1.5,0,0,0-2-.639,1.5,1.5,0,0,0-.687,1.982l7.293,15.765v2.522a2.989,2.989,0,0,1-1.295,2.463l-7.207-19.36a1.5,1.5,0,0,0-1.893-.913,1.5,1.5,0,0,0-.952,1.874l5.772,18.939h-15.445a3.006,3.006,0,0,1-3-3V179.454a3.006,3.006,0,0,1,3-3h18.017a3.006,3.006,0,0,1,3,3Zm-.909,21.212a1.11,1.11,0,0,1-.854-.032,1.114,1.114,0,0,1-.58-.628l-7.854-25.766a.3.3,0,0,1,.188-.381.3.3,0,0,1,.382.188l7.457,20.035,1.917,5.153a1.113,1.113,0,0,1-.656,1.431Zm.468-5.382-.421-1.141a4.19,4.19,0,0,0,2.059-3.557l.849,1.837a5.34,5.34,0,0,1-2.487,2.861Zm7.061,1.351a1.111,1.111,0,0,1-.849.086,1.11,1.11,0,0,1-.66-.539l-11.314-24.448a.3.3,0,0,1,.136-.4.3.3,0,0,1,.4.137l12.736,23.658a1.111,1.111,0,0,1,.087.849A1.11,1.11,0,0,1-2407.875,203.58Zm-33.046-24.126a5.413,5.413,0,0,1,5.406-5.406h18.017a5.413,5.413,0,0,1,5.406,5.406v11.407l-1.2-2.231v-9.176a4.208,4.208,0,0,0-4.2-4.2h-18.017a4.209,4.209,0,0,0-4.205,4.2v18.017a4.211,4.211,0,0,0,4.205,4.205h15.811l.366,1.2h-16.177a5.413,5.413,0,0,1-5.406-5.406Z" fill="#91b508"/>
    <path id="Shape-2" data-name="Shape" d="M-2431.912,177.051c-2.649,0-4.8,1.617-4.8,3.6v3.6c0,1.988,2.156,3.6,4.8,3.6s4.805-1.616,4.805-3.6v-3.6C-2427.107,178.668-2429.263,177.051-2431.912,177.051Zm0,1.2c1.953,0,3.6,1.1,3.6,2.4s-1.651,2.4-3.6,2.4-3.6-1.1-3.6-2.4S-2433.865,178.253-2431.912,178.253Zm0,8.408c-1.953,0-3.6-1.1-3.6-2.4V183.03a5.577,5.577,0,0,0,3.6,1.228,5.58,5.58,0,0,0,3.6-1.228v1.228C-2428.308,185.561-2429.959,186.661-2431.912,186.661Z" fill="#91b508"/>
    <path id="Shape-3" data-name="Shape" d="M-2432.513,180.655h1.2a.6.6,0,0,0,.6-.6.6.6,0,0,0-.6-.6h-1.2a.6.6,0,0,0-.6.6A.6.6,0,0,0-2432.513,180.655Z" fill="#91b508"/>
    <path id="Shape-4" data-name="Shape" d="M-2431.912,189.063c-2.649,0-4.8,1.616-4.8,3.6v3.6c0,1.988,2.156,3.6,4.8,3.6s4.805-1.616,4.805-3.6v-3.6C-2427.107,190.679-2429.263,189.063-2431.912,189.063Zm0,1.2c1.953,0,3.6,1.1,3.6,2.4s-1.651,2.4-3.6,2.4-3.6-1.1-3.6-2.4S-2433.865,190.264-2431.912,190.264Zm0,8.409c-1.953,0-3.6-1.1-3.6-2.4v-1.228a5.577,5.577,0,0,0,3.6,1.228,5.58,5.58,0,0,0,3.6-1.228v1.228C-2428.308,197.572-2429.959,198.673-2431.912,198.673Z" fill="#91b508"/>
    <path id="Shape-5" data-name="Shape" d="M-2432.513,192.667h1.2a.6.6,0,0,0,.6-.6.6.6,0,0,0-.6-.6h-1.2a.6.6,0,0,0-.6.6A.6.6,0,0,0-2432.513,192.667Z" fill="#91b508"/>
  </g>
</svg>
