<svg xmlns="http://www.w3.org/2000/svg" width="30.009" height="25.465" viewBox="0 0 30.009 25.465">
  <path id="Контур_66" data-name="Контур 66" d="M-2277.481,991.3a2.466,2.466,0,0,0-2.88-.552l-24.951,9.524c-1.477.564-1.675,1.45-1.662,1.927s.262,1.35,1.8,1.839l5.043,1.444,2.753,7.873a2.674,2.674,0,0,0,2.487,1.947,2.906,2.906,0,0,0,1.97-.832l3.032-2.792,4.465,3.6.062.049a2.948,2.948,0,0,0,1.793.668,2.545,2.545,0,0,0,2.442-2.241l4.087-20.186A2.669,2.669,0,0,0-2277.481,991.3Zm-14.187,18.944-2.26,2.082.8-3.255Zm2.214-9.427-5.165,5.488a1.142,1.142,0,0,0-.275.5l-.984,3.988-1.987-5.682Zm6.11-3.2a1.127,1.127,0,0,0,.081-1.453,1.127,1.127,0,0,0-1.417-.327l-14.7,7.506-4.377-1.252,24.2-9.237a1.02,1.02,0,0,1,.327-.075,1.11,1.11,0,0,1-.025.331l-4.088,20.186c-.055.269-.159.43-.227.43a.767.767,0,0,1-.4-.186l-8.17-6.579Z" transform="translate(2306.975 -990.525)" fill="#91b508"/>
</svg>
