<svg xmlns="http://www.w3.org/2000/svg" width="37.971" height="23.731" viewBox="0 0 37.971 23.731">
  <path id="Контур_65" data-name="Контур 65" d="M-2359.381,1015.123c5.493,0,3.534-3.477,3.958-4.477-.006-.747-.012-1.465.013-1.9a8.442,8.442,0,0,1,2.865,2.163c2.618,2.642,3.288,4.216,5.4,4.216h3.894a2.57,2.57,0,0,0,2.2-.939,2.459,2.459,0,0,0,.282-2.275c-.869-2.728-5.935-7.438-6.25-7.935.048-.091.124-.213.163-.277h0c1-1.321,4.816-7.038,5.378-9.326l0-.013a2.28,2.28,0,0,0-.263-2.1,2.417,2.417,0,0,0-2.055-.862h-3.893a2.867,2.867,0,0,0-2.793,1.854c-.837,2.128-3.188,6.5-4.95,8.053-.054-2.194-.018-3.87.011-5.115.057-2.429.24-4.792-2.28-4.792h-6.12c-1.579,0-3.089,1.724-1.454,3.772,1.431,1.794.515,2.794.823,7.771a29.138,29.138,0,0,1-4.854-9.222c-.424-1.2-1.066-2.32-2.874-2.32h-3.894a2.223,2.223,0,0,0-2.522,2.3c0,3.237,7.165,21.428,19.215,21.428Zm-12.8-21.356c.343,0,.378,0,.632.723,1.549,4.561,5.024,11.31,7.561,11.31,1.907,0,1.907-1.954,1.907-2.69l0-5.857a5.6,5.6,0,0,0-1.273-3.488l5.55.006c0,.027-.032,6.479.015,8.042,0,2.22,1.763,3.492,4.514.707a33.831,33.831,0,0,0,4.992-8.374c.118-.285.221-.381.595-.381h3.909l0,.014c-.356,1.661-3.87,6.955-5.046,8.6-.019.025-.036.052-.053.079a2.362,2.362,0,0,0,.071,3.091h0c.092.111.331.371.679.731,1.082,1.117,4.794,4.937,5.123,6.455-.218.035-.456.01-4.134.018-.783,0-1.4-1.171-3.732-3.528-2.1-2.044-3.465-2.88-4.707-2.88-2.411,0-2.235,1.957-2.213,4.324.008,2.566-.008,1.755.009,1.916a4.784,4.784,0,0,1-1.6.166c-10.039,0-16.576-15.933-16.827-18.979.087-.008,1.284,0,4.028,0Z" transform="translate(2378.596 -991.392)" fill="#91b508"/>
</svg>
