<svg xmlns="http://www.w3.org/2000/svg" width="37.278" height="39.733" viewBox="0 0 37.278 39.733">
  <g id="Сгруппировать_101" data-name="Сгруппировать 101" transform="translate(2442.746 -425.314)">
    <g id="Сгруппировать_90" data-name="Сгруппировать 90">
      <g id="Сгруппировать_89" data-name="Сгруппировать 89">
        <path id="Контур_48" data-name="Контур 48" d="M-2409.65,454.518a.608.608,0,0,0-.844.162,11.127,11.127,0,0,1-9.212,4.894.608.608,0,0,0-.608.608.609.609,0,0,0,.608.609,12.342,12.342,0,0,0,10.218-5.428A.608.608,0,0,0-2409.65,454.518Z" fill="#91b508"/>
      </g>
    </g>
    <g id="Сгруппировать_92" data-name="Сгруппировать 92">
      <g id="Сгруппировать_91" data-name="Сгруппировать 91">
        <path id="Контур_49" data-name="Контур 49" d="M-2407.963,448.8a.607.607,0,0,0-.655.557,11.031,11.031,0,0,1-.823,3.384.609.609,0,0,0,.326.8.612.612,0,0,0,.235.047.607.607,0,0,0,.561-.373,12.222,12.222,0,0,0,.913-3.756A.607.607,0,0,0-2407.963,448.8Z" fill="#91b508"/>
      </g>
    </g>
    <g id="Сгруппировать_94" data-name="Сгруппировать 94">
      <g id="Сгруппировать_93" data-name="Сгруппировать 93">
        <path id="Контур_50" data-name="Контур 50" d="M-2429.077,436.689h-4.345a2.08,2.08,0,0,1-2.077-2.078,2.08,2.08,0,0,1,2.077-2.077h2a.608.608,0,0,0,.608-.608.608.608,0,0,0-.608-.608h-2a3.3,3.3,0,0,0-3.294,3.293,3.3,3.3,0,0,0,3.294,3.294h4.345a.608.608,0,0,0,.608-.608A.608.608,0,0,0-2429.077,436.689Z" fill="#91b508"/>
      </g>
    </g>
    <g id="Сгруппировать_96" data-name="Сгруппировать 96">
      <g id="Сгруппировать_95" data-name="Сгруппировать 95">
        <path id="Контур_51" data-name="Контур 51" d="M-2427.032,425.314h-2.649a.609.609,0,0,0-.608.609.608.608,0,0,0,.608.608h2.648a2.4,2.4,0,0,1,2.394,2.393,2.4,2.4,0,0,1-2.394,2.394h-2.345a.608.608,0,0,0-.608.608.608.608,0,0,0,.608.608h2.345a3.613,3.613,0,0,0,3.61-3.61A3.614,3.614,0,0,0-2427.032,425.314Z" fill="#91b508"/>
      </g>
    </g>
    <g id="Сгруппировать_98" data-name="Сгруппировать 98">
      <g id="Сгруппировать_97" data-name="Сгруппировать 97">
        <path id="Контур_52" data-name="Контур 52" d="M-2414.079,433.326h-4.829a1.827,1.827,0,0,1-1.825-1.825,1.827,1.827,0,0,1,1.825-1.825h1.679a.609.609,0,0,0,.609-.609.609.609,0,0,0-.609-.608h-1.679a3.045,3.045,0,0,0-3.041,3.042,3.044,3.044,0,0,0,3.041,3.041h4.829a1.433,1.433,0,0,1,1.431,1.431V437.3a.608.608,0,0,0,.608.608.609.609,0,0,0,.609-.608v-1.324A2.651,2.651,0,0,0-2414.079,433.326Z" fill="#91b508"/>
      </g>
    </g>
    <g id="Сгруппировать_100" data-name="Сгруппировать 100">
      <g id="Сгруппировать_99" data-name="Сгруппировать 99">
        <path id="Контур_53" data-name="Контур 53" d="M-2407.022,446.9h-.519a1.348,1.348,0,0,0,.012-.171,2.235,2.235,0,0,0-.774-1.458,2.434,2.434,0,0,1-.434-.555,2.344,2.344,0,0,1-.076-.661,2.249,2.249,0,0,0-.493-1.616,2.255,2.255,0,0,0-1.616-.494,2.311,2.311,0,0,1-.662-.076,2.387,2.387,0,0,1-.555-.433,2.237,2.237,0,0,0-1.458-.775,2.236,2.236,0,0,0-1.457.775,2.37,2.37,0,0,1-.556.433,2.3,2.3,0,0,1-.661.076,4.3,4.3,0,0,0-.853.088,5.3,5.3,0,0,0-4.21-2.078,5.312,5.312,0,0,0-4.486,2.471,5.269,5.269,0,0,0-2.542-.649,5.342,5.342,0,0,0-.774.057,2.586,2.586,0,0,0-2.484-1.879,2.585,2.585,0,0,0-2.34,1.491,5.278,5.278,0,0,0-1.912-.356,5.321,5.321,0,0,0-5.209,4.27,2.574,2.574,0,0,0-.6,1.621,1.555,1.555,0,0,0-1.064,1.474,14.2,14.2,0,0,0,3.681,9.544.608.608,0,0,0,.859.043.608.608,0,0,0,.043-.859,12.987,12.987,0,0,1-2.048-3.025h5.269a.608.608,0,0,0,.608-.608.608.608,0,0,0-.608-.608h-5.788a12.97,12.97,0,0,1-.5-1.688h19.355a.609.609,0,0,0,.608-.609.608.608,0,0,0-.608-.608h-19.563a13,13,0,0,1-.1-1.582.339.339,0,0,1,.339-.338h34.169a.338.338,0,0,1,.338.338,13.036,13.036,0,0,1-13.022,13.022h-8.8a12.885,12.885,0,0,1-7.957-2.721.607.607,0,0,0-.853.108.608.608,0,0,0,.108.853,14.141,14.141,0,0,0,4.457,2.333v.785a2.218,2.218,0,0,0,2.216,2.216h12.861a2.218,2.218,0,0,0,2.216-2.216v-.789a14.262,14.262,0,0,0,9.992-13.591A1.556,1.556,0,0,0-2407.022,446.9Zm-24.6-5.729a1.368,1.368,0,0,1,1.309.978,5.279,5.279,0,0,0-1.465.875,5.36,5.36,0,0,0-1.105-1.01A1.366,1.366,0,0,1-2431.62,441.167Zm-8.841,5.729a1.367,1.367,0,0,1,1.36-1.25,1.367,1.367,0,0,1,1.36,1.25Zm4.922,0h-.665v-.5a.333.333,0,0,1,.333-.332.332.332,0,0,1,.332.332Zm1.87,0h-.653v-.5a1.551,1.551,0,0,0-1.549-1.549,1.543,1.543,0,0,0-1.2.573,2.576,2.576,0,0,0-.477-.469,2.21,2.21,0,0,1,1.676-.769,2.216,2.216,0,0,1,2.214,2.214v.289h0Q-2433.665,446.791-2433.669,446.9Zm.662-2.383a3.428,3.428,0,0,0-2.864-1.546,3.43,3.43,0,0,0-2.83,1.494,2.638,2.638,0,0,0-.4-.031,2.59,2.59,0,0,0-.376.027,4.1,4.1,0,0,1,3.606-2.155,4.092,4.092,0,0,1,3.252,1.609A5.176,5.176,0,0,0-2433.007,444.513Zm4.372,2.383a.332.332,0,0,1,.274-.144.332.332,0,0,1,.273.144Zm1.81,0a1.551,1.551,0,0,0-1.536-1.36,1.551,1.551,0,0,0-1.537,1.36h-.669a2.217,2.217,0,0,1,2.206-2.026,2.217,2.217,0,0,1,2.205,2.026Zm1.889,0a3.435,3.435,0,0,0-3.425-3.242,3.434,3.434,0,0,0-3.425,3.242h-.666a4.1,4.1,0,0,1,4.091-3.907,4.1,4.1,0,0,1,4.091,3.907Zm3.935,0h-.665v-1.633a.333.333,0,0,1,.332-.333.333.333,0,0,1,.333.333Zm1.881,0h-.665v-1.633a1.55,1.55,0,0,0-1.549-1.549,1.55,1.55,0,0,0-1.549,1.549V446.9h-.171a5.278,5.278,0,0,0-.465-1.99,2.218,2.218,0,0,1,2.185-1.858,2.217,2.217,0,0,1,2.214,2.215V446.9Zm1.882,0h-.665v-1.633a3.435,3.435,0,0,0-3.431-3.431,3.434,3.434,0,0,0-3.009,1.785,5.331,5.331,0,0,0-.482-.492,4.094,4.094,0,0,1,3.491-1.958,4.1,4.1,0,0,1,4.1,4.1Zm4.153,0h-1.023a.536.536,0,0,1-.028-.171.54.54,0,0,1,.539-.54.54.54,0,0,1,.54.54A.51.51,0,0,1-2413.085,446.9Zm1.948,0h-.712c.005-.056.009-.113.009-.171a1.758,1.758,0,0,0-1.756-1.756,1.759,1.759,0,0,0-1.757,1.756c0,.058,0,.115.009.171h-.678v-.618a2.47,2.47,0,0,1,2.426-2.019,2.469,2.469,0,0,1,2.466,2.466C-2411.13,446.782-2411.133,446.839-2411.137,446.9Zm2.325,0h-1.106c0-.057,0-.114,0-.171a3.687,3.687,0,0,0-3.682-3.683,3.665,3.665,0,0,0-2.559,1.04,5.354,5.354,0,0,0-.3-.917l.222-.008a3.053,3.053,0,0,0,1.087-.168,3.247,3.247,0,0,0,.918-.665c.205-.19.486-.45.631-.45s.425.26.631.45a3.241,3.241,0,0,0,.916.665,3.064,3.064,0,0,0,1.088.168,1.594,1.594,0,0,1,.795.137,1.584,1.584,0,0,1,.138.8,3.081,3.081,0,0,0,.167,1.087,3.235,3.235,0,0,0,.665.917c.19.205.451.486.451.631A.363.363,0,0,1-2408.812,446.9Zm-7.865,15.935a1,1,0,0,1-1,1h-12.862a1,1,0,0,1-1-1v-.464a14.374,14.374,0,0,0,3.029.321h8.8a14.255,14.255,0,0,0,3.029-.325Z" fill="#91b508"/>
      </g>
    </g>
  </g>
</svg>
