<svg xmlns="http://www.w3.org/2000/svg" width="24.798" height="24.798" viewBox="0 0 24.798 24.798">
  <g id="Сгруппировать_124" data-name="Сгруппировать 124" transform="translate(2236.729 -990.859)">
    <path id="Контур_67" data-name="Контур 67" d="M-2218.379,1005.108c-.049-.023-1.857-.914-2.178-1.029a1.249,1.249,0,0,0-.421-.093.716.716,0,0,0-.609.36c-.18.269-.727.908-.9,1.1-.022.025-.052.055-.07.055s-.3-.115-.381-.152a9.512,9.512,0,0,1-3.613-3.21.184.184,0,0,1-.03-.071.55.55,0,0,1,.106-.125c.1-.1.2-.226.308-.35.049-.059.1-.118.146-.174a1.954,1.954,0,0,0,.294-.466l.04-.081a.839.839,0,0,0-.025-.794c-.042-.085-.806-1.928-.887-2.121-.2-.467-.453-.685-.811-.685-.033,0,0,0-.14.006a4.33,4.33,0,0,0-1.5.387,3.144,3.144,0,0,0-1.167,2.677,5.766,5.766,0,0,0,1.251,3.176l.051.074a11.778,11.778,0,0,0,5.052,4.386,8.222,8.222,0,0,0,3.051.78h0a4.7,4.7,0,0,0,.5-.029l.089-.009a3.2,3.2,0,0,0,2.236-1.582,2.5,2.5,0,0,0,.143-1.647A1.146,1.146,0,0,0-2218.379,1005.108Z" fill="#91b508"/>
    <path id="Контур_68" data-name="Контур 68" d="M-2224.11,990.859a12.148,12.148,0,0,0-12.18,12.088,12,12,0,0,0,1.67,6.113l-2.092,6.171a.322.322,0,0,0,.075.329.323.323,0,0,0,.23.1.3.3,0,0,0,.1-.016l6.434-2.044a12.261,12.261,0,0,0,5.766,1.437,12.146,12.146,0,0,0,12.178-12.087A12.147,12.147,0,0,0-2224.11,990.859Zm0,21.657a9.643,9.643,0,0,1-5.308-1.583.329.329,0,0,0-.177-.052.33.33,0,0,0-.1.015l-3.223,1.024,1.041-3.069a.325.325,0,0,0-.045-.294,9.437,9.437,0,0,1-1.837-5.61,9.62,9.62,0,0,1,9.647-9.57,9.62,9.62,0,0,1,9.647,9.57A9.619,9.619,0,0,1-2224.11,1012.516Z" fill="#91b508"/>
  </g>
</svg>
