<svg xmlns="http://www.w3.org/2000/svg" width="39.732" height="30.777" viewBox="0 0 39.732 30.777">
  <g id="Сгруппировать_107" data-name="Сгруппировать 107" transform="translate(2443.973 -347.685)">
    <g id="Сгруппировать_104" data-name="Сгруппировать 104">
      <g id="Сгруппировать_103" data-name="Сгруппировать 103">
        <path id="Контур_54" data-name="Контур 54" d="M-2430.078,371.354h-.521a2.329,2.329,0,0,0-2.319-2.27h-.816l-1.5-1.512a1.278,1.278,0,0,0-.916-.382,1.28,1.28,0,0,0-.916.382l-1.5,1.512h-.815a2.329,2.329,0,0,0-2.319,2.27h-.522a1.761,1.761,0,0,0-1.753,1.764v.231a1.764,1.764,0,0,0,1.375,1.721V376.7a1.76,1.76,0,0,0,1.753,1.763h9.393a1.761,1.761,0,0,0,1.753-1.763V375.07a1.765,1.765,0,0,0,1.375-1.721v-.231A1.761,1.761,0,0,0-2430.078,371.354Zm-9.3-1.055h2.481a.608.608,0,0,0,.608-.608.607.607,0,0,0-.564-.605l.653-.658a.072.072,0,0,1,.1,0l1.677,1.691a.605.605,0,0,0,.432.18h1.069a1.113,1.113,0,0,1,1.1,1.055h-8.665A1.112,1.112,0,0,1-2439.379,370.3Zm9.839,3.05a.543.543,0,0,1-.538.547h-2.143a.608.608,0,0,0-.608.608.608.608,0,0,0,.608.608h1.306V376.7a.543.543,0,0,1-.537.548h-9.393a.544.544,0,0,1-.538-.548v-1.587h6.244a.608.608,0,0,0,.608-.608.608.608,0,0,0-.608-.608h-7.081a.543.543,0,0,1-.537-.547v-.232a.543.543,0,0,1,.537-.547h12.142a.543.543,0,0,1,.538.547v.232Z" fill="#91b508"/>
      </g>
    </g>
    <g id="Сгруппировать_106" data-name="Сгруппировать 106">
      <g id="Сгруппировать_105" data-name="Сгруппировать 105">
        <path id="Контур_55" data-name="Контур 55" d="M-2404.628,357.226a1.726,1.726,0,0,0-1.337-.628h-.393v-3.035a1.132,1.132,0,0,0-1.135-1.126h-1.711v-1.3a1.131,1.131,0,0,0-1.135-1.125h-1.922v-.532a1.132,1.132,0,0,0-1.136-1.126h-2.108a1.138,1.138,0,0,0-1.02.634h-1.852v-.178a1.131,1.131,0,0,0-1.135-1.125h-2.108a1.131,1.131,0,0,0-1.135,1.125v1.2h-1.923a1.132,1.132,0,0,0-1.135,1.126v1.3h-1.711a1.132,1.132,0,0,0-1.135,1.126V356.6h-.357a1.746,1.746,0,0,0-1.338.631,1.678,1.678,0,0,0-.345,1.437l4.082,18.456a1.729,1.729,0,0,0,1.684,1.34h14.957a1.727,1.727,0,0,0,1.685-1.346l2.619-12.049a.607.607,0,0,0-.465-.723.607.607,0,0,0-.723.464l-.841,3.872h-5.246a4.978,4.978,0,0,0-4.543-2.975,4.978,4.978,0,0,0-4.543,2.975h-5.206l-2.273-10.277a.465.465,0,0,1,.1-.4.528.528,0,0,1,.4-.186h3.561a.041.041,0,0,1,.039.038,7.79,7.79,0,0,0,2.36,4.783,8,8,0,0,0,5.566,2.228,8,8,0,0,0,5.565-2.228,7.79,7.79,0,0,0,2.361-4.783.039.039,0,0,1,.038-.038h3.561a.512.512,0,0,1,.4.185.466.466,0,0,1,.1.4l-.916,4.218a.607.607,0,0,0,.464.723.609.609,0,0,0,.724-.465l.916-4.218A1.683,1.683,0,0,0-2404.628,357.226Zm-7.956,12.67h4.618l-.45,2.073h-4.258a5.054,5.054,0,0,0,.158-1.252A5.05,5.05,0,0,0-2412.584,369.9Zm-9.233,3.288a4.976,4.976,0,0,0,4.026,2.535v.006q.141.009.285.009a4.942,4.942,0,0,0,1.616-.27.608.608,0,0,0,.376-.774.608.608,0,0,0-.773-.375,3.851,3.851,0,0,1-.694.166v0a3.752,3.752,0,0,1-.509.036,3.782,3.782,0,0,1-3.759-3.8,3.781,3.781,0,0,1,3.759-3.8,3.781,3.781,0,0,1,3.758,3.8,3.815,3.815,0,0,1-.567,2.006.608.608,0,0,0,.2.837.607.607,0,0,0,.836-.2c.036-.059.071-.118.1-.178h4.481l-.8,3.674a.512.512,0,0,1-.5.389h-14.957a.513.513,0,0,1-.5-.387l-.813-3.676Zm-.58-3.288a5.05,5.05,0,0,0-.068.821,5.009,5.009,0,0,0,.158,1.251h-4.205l-.459-2.072Zm-5.047-15.528v-.715h1.631v.6h-1.134A1.165,1.165,0,0,0-2427.444,354.368Zm2.661,2.426a1.248,1.248,0,0,0-.672-.2h-1.439v-1.126h2.111Zm.186-3.1v-2.466h1.842v1.939h-.869A1.162,1.162,0,0,0-2424.6,353.693Zm3.137,8.691a6.866,6.866,0,0,1-.754-.626,6.658,6.658,0,0,1-1.357-1.85v-5.526h2.111v8Zm.054-9.218h-.134V348.9h1.948v5.92h-.652v-.5A1.159,1.159,0,0,0-2421.406,353.166Zm3.3,10.453a6.789,6.789,0,0,1-2.111-.534v-7.05h2.111Zm.158-8.8h-.431V350.2h1.842v3.965h-.367A1.161,1.161,0,0,0-2417.946,354.82Zm3.209,8.253a6.787,6.787,0,0,1-2.111.544v-8.232h2.111Zm.009-8.9h-.591v-4.055a1.111,1.111,0,0,0-.106-.471v-.073h1.948v3.6h-.1A1.161,1.161,0,0,0-2414.728,354.169Zm3.317,5.742a6.657,6.657,0,0,1-1.356,1.847,6.693,6.693,0,0,1-.756.627v-8h2.112v5.529Zm.991-6.27h0a1.164,1.164,0,0,0-.938-.475h-.9v-1.939h1.842v2.414Zm2.333,2.957h-1.439a1.248,1.248,0,0,0-.672.2v-1.322h2.111Zm-1.117-2.342v-.6h1.631v.7a1.18,1.18,0,0,0-.461-.094Z" fill="#91b508"/>
      </g>
    </g>
  </g>
</svg>
