<svg xmlns="http://www.w3.org/2000/svg" width="299.217" height="285.434" viewBox="0 0 299.217 285.434">
  <g id="лого" transform="translate(513.775 356.971)">
    <path id="path4" d="M-513.775-356.971h299.217V-71.537H-513.775Z" fill="#fff" fill-rule="evenodd"/>
    <path id="path6" d="M-271.453-199.8H-45.5v9.563H-271.453Z" transform="translate(-205.688 -133.412)" fill="#050109" fill-rule="evenodd"/>
    <path id="path8" d="M1028.244-190.235H993.537V-199.8h34.707Z" transform="translate(-1279.437 -133.412)" fill="#7fbf00" fill-rule="evenodd"/>
    <path id="path10" d="M900.958-190.235h-8.145V-199.8h8.145Z" transform="translate(-1193.94 -133.412)" fill="#7fbf00" fill-rule="evenodd"/>
    <path id="path12" d="M-271.453,1287.71H-45.5v9.562H-271.453Z" transform="translate(-205.688 -1396.038)" fill="#050109" fill-rule="evenodd"/>
    <path id="path14" d="M-271.453,1297.273h44.307v-9.562h-44.307Z" transform="translate(-205.688 -1396.039)" fill="#7fab13" fill-rule="evenodd"/>
    <path id="path16" d="M81.432,1297.273h10.4v-9.562h-10.4Z" transform="translate(-505.224 -1396.039)" fill="#7fab13" fill-rule="evenodd"/>
    <path id="path18" d="M-251.907,792.556h6.233v39.821h-6.233v12.653h37.216c11.537,0,24.935-2.605,24.935-18.236,0-11.909-8.839-15.631-13.863-16.654v-.093c6.327-2.14,10.7-6.047,10.7-13.584,0-7.071-3.07-16.561-20.1-16.561h-38.89v12.653Zm21.585,25.028h13.956c5.582,0,10.42,1.21,10.42,7.443,0,5.954-5.768,7.35-8.467,7.35h-15.91Zm0-25.028h13.491c6.792,0,8.281,3.629,8.281,6.327,0,2.512-1.4,6.7-7.629,6.7h-14.142Zm159.1,19.724,15.816,20.562h-5.4v12.188H-31.87V832.377h-5.117L-54.85,811.072l15.258-18.515h5.583V779.9H-60.991v12.188h4.745l-14.979,20.189Zm-1.861-20.189h5.3V779.9H-94.671v12.653h6.233v39.821h-6.233v12.653h26.888V832.842h-5.3Z" transform="translate(-222.279 -965.002)" fill="#7fbf00" fill-rule="evenodd"/>
    <path id="path20" d="M350.055,861.042l-1.188,3.1a2.562,2.562,0,0,1-.063.392l-.387,1.885c5.933,3.153,29.812,3,35.753-.309a2.7,2.7,0,0,0,.8-.695c-.045-.68-.837-4.358-1.522-5l-.555-.457c-10.4,4.648-20.908,2.8-31.779,1.246a2.153,2.153,0,0,0-1.063-.162Z" transform="translate(-731.845 -1032.954)" fill="#e30016" fill-rule="evenodd"/>
    <path id="path22" d="M373.258,800.843l.511.245c.038.019.138.08.175.1l4.528.787a14.73,14.73,0,0,0,1.845.287c2.193.037,4.306.456,6.473.56a43.185,43.185,0,0,0,9.09-.5c1.362-.3,5.256-1.272,6.432-2.049l-.36-.414c-.023-.032-.143-.221-.172-.263-.016-.023-.291-.38-.305-.394-8.382-6.688-16.111-9.043-26.355-.537a7.7,7.7,0,0,0-1.624,1.8Z" transform="translate(-752.931 -976.272)" fill="#e30016" fill-rule="evenodd"/>
    <path id="path24" d="M349.651,928.85c1.433.246,32.811,4.348,34.787-1.475l.619-2.815c.314-1.189.272-1.836.035-1.736a5.761,5.761,0,0,1-1.041.314c-12.664,3.593-20.176,2.734-32.852,1-.814-.147-2.254-.51-2.522-.251-.617.6.675,4.485.973,4.958Z" transform="translate(-731.927 -1086.308)" fill="#e30016" fill-rule="evenodd"/>
    <path id="path26" d="M401.064,988.109c-8.8,1.025-17.708,2.765-26.812.406l-2.655-.493c.045,1.717,4.217,4.6,5.732,5.459a18.31,18.31,0,0,0,9.039,2.31c6.152.013,10.367-2.669,14.3-6.813C400.925,988.718,401.109,988.613,401.064,988.109Z" transform="translate(-751.521 -1141.657)" fill="#e30016" fill-rule="evenodd"/>
    <path id="path28" d="M213.129,679.169a36.308,36.308,0,0,1,35.824,30.421l.192-.439c.208-.8.256-1.611.547-2.475.9-3.474,1.772-6.968,2.766-10.4.114-.376.192-.766.282-1.149.01-.034.027-.068.036-.1l.219-.946c.515-1.209,0-.44.384-1.322a4.223,4.223,0,0,1,.721-1.328l.344-.37c.017-.023.038-.06.054-.084l.108-.174a6.541,6.541,0,0,1,2.369-1.685c.5-.275-.252-.219.591-.271,1.466-.09,0,3.555-.268,5.342-.007.044-.009.08-.016.125-1.041,5.241-11.771,59.776-12.131,60.136a5.09,5.09,0,0,1-1.857,1.19c-.6.255-1.1.907-1.774,1.177l-2.667,1.392a5.667,5.667,0,0,1-1.512.5,14.634,14.634,0,0,1,.179-1.56c.244-1.324.67-2.486.861-3.743,1.222-4.134,1.871-8.527,2.993-12.648l.769-2.981c.029-.223.068-.434.112-.637a36.3,36.3,0,0,1-59.572-1.9c-.174.508.423,2.143.591,2.81.259,1.031.341,2.07.673,3.069,1.029,4.027,2.1,8,3.165,12.014.422,1.845,1.518,4.286,1.458,6.122a6.074,6.074,0,0,1-2.168-.683,19.3,19.3,0,0,0-1.9-.98c-1.227-.451-2.579-1.62-3.649-2.073-.447-.189-.605-.208-.768-.675-1.72-7.531-4.1-17.254-5.114-24.665-.2-1.423-.745-3.469-1.052-4.887-.092-.426-.226-.772-.3-1.086-.048-.213-.055-.393-.106-.61-.131-.563-.074-.151-.166-.54l-.174-.986c-.01-.035-.027-.069-.037-.1l-.174-1.414a20.609,20.609,0,0,0-.537-2.335c-.173-.785-.335-1.64-.51-2.394-.091-.392-.144-.856-.234-1.178-.53-1.909-.744-3.8-1.19-5.858l-3.7-18.773c.908-.572,1.616-.357,2.624.516,3.482,3.012,6.012,16.659,7.4,21.373a.867.867,0,0,1,.2-.083l0,.019c-.027.013-.067.006.013-.133A36.3,36.3,0,0,1,213.129,679.169Zm0,5.843a30.457,30.457,0,1,1-30.457,30.457A30.457,30.457,0,0,1,213.129,685.012Z" transform="translate(-577.679 -879.496)" fill="#050109" fill-rule="evenodd"/>
    <path id="path30" d="M-237.622,356.474c3.2,0,5.839.975,5.839,5.914,0,4.874-2.3,6.629-5.839,6.629h-1.965V356.474Zm2.751,33.275.505-7.6-5.221-.39v-4.094h4.1c6.962,0,15.27-5.069,15.27-16.053,0-10.009-5.726-14.1-15.551-14.1h-17.8l-.505,8.124,4.042.52v24.437l-4.042.455.505,8.709h18.695Zm45.194-21.837c0,7.474-2.526,13.323-8.421,13.323-5.839,0-8.2-5.849-8.2-13.323,0-7.409,2.526-11.828,8.2-11.828C-192.373,356.085-189.678,360.5-189.678,367.913Zm11.621,0c0-13.128-6.962-21.772-20.042-21.772-13.025,0-19.762,8.644-19.762,21.772,0,13.193,6.737,23.267,19.762,23.267C-185.018,391.18-178.057,381.106-178.057,367.913Zm2.526,21.837s1.516,1.43,5.109,1.43c8.533,0,14.765-8.839,14.877-34.185h5.446v23.592l-4.042.455.505,8.709h18.414l.449-8.774-4.154-.325V356.669l3.705-.455v-8.709h-35.088l-.505,8.774,5.277.585c-.561,19.172-3.2,22.812-7.242,22.812a5.044,5.044,0,0,1-2.358-.455l-.393,10.529Zm43.4,0s1.516,1.43,5.109,1.43c8.533,0,14.765-8.839,14.877-34.185h5.446v23.592l-4.042.455.505,8.709h18.414l.449-8.774-4.154-.325V356.669l3.705-.455v-8.709h-35.088l-.505,8.774,5.277.585c-.561,19.172-3.2,22.812-7.242,22.812a5.044,5.044,0,0,1-2.358-.455l-.393,10.529Zm98.808,0,.505-8.189-4.211-.39v-24.5l3.705-.455v-8.709H-51.739l-.505,8.124,4.042.52v24.437l-4.042.455.505,8.709h18.414Zm-37.5-18.133c3.93,0,6.4.52,6.4,4.159,0,3.7-2.526,5.069-6.4,5.069h-2.021v-9.229h2.021Zm.561,18.133c11.172,0,16.73-5.979,16.73-14.558,0-8.644-6.625-12.218-17.235-12.218h-2.077V356.15l3.705-.52v-8.124H-87.557l-.505,8.124,4.042.52v24.437l-4.042.455.505,8.709h17.292Z" transform="translate(-220.441 -596.816)" fill="#ff5900" fill-rule="evenodd"/>
    <path id="path32" d="M-212.808-19.3l.505-8.774-4.154-.325V-52.9l3.705-.52v-8.124h-40.815l-.505,8.124,4.042.52v24.437l-4.042.455.505,8.709h18.358l.505-8.774-4.154-.325V-52.054h11.228v23.592l-4.1.455.505,8.709h18.414Zm46.485,0,.505-8.189-4.154-.39V-52.9l3.649-.52v-8.124h-13.811l-.618,1.625-13.755,22.162h-.168l.337-5V-52.9l3.649-.52v-8.124h-17.853l-.505,8.124,4.042.52v24.437l-4.042.455.505,8.709h13.811l.618-1.625,13.586-22.1h.168l-.281,5.524v9.554l-3.93.52.505,8.124h17.741Zm45.081-34.12v-8.124h-18.47l-.505,8.124,4.1.52v24.112h-11.228V-52.9l3.649-.52v-8.124h-18.358l-.505,8.124,4.042.52v24.437l-4.042.455.505,8.709h30.878l1.011,10.009h9.432l1.291-19.5h-5.5V-52.9l3.705-.52Zm46.26,0v-8.124h-18.47l-.505,8.124,4.1.52v24.112h-11.228V-52.9l3.649-.52v-8.124H-115.8l-.505,8.124,4.042.52v24.437l-4.042.455.505,8.709h30.878L-83.908-9.29h9.432l1.291-19.5h-5.5V-52.9l3.705-.52Zm23.579,1.95,3.481,13.583h-7.354l3.649-13.583ZM-55.613-19.3l.505-7.539-3.256-.39.9-2.73h11.734l1.011,3.25-2.639.455V-19.3h16.9l.505-8.189-3.425-.325L-43.43-61.543H-57.971L-68.076-28.4l-3.537.39.505,8.709h15.495Z" transform="translate(-220.441 -250.765)" fill="#7fbf00" fill-rule="evenodd"/>
  </g>
</svg>
